{
	"asset":{
		"generator":"Khronos glTF Blender I/O v4.5.48",
		"version":"2.0"
	},
	"scene":0,
	"scenes":[
		{
			"name":"Scene",
			"nodes":[
				1
			]
		}
	],
	"nodes":[
		{
			"mesh":0,
			"name":"Plane.007",
			"scale":[
				3.720977544784546,
				3.720977544784546,
				3.720977544784546
			],
			"translation":[
				6.397372722625732,
				1.4892466068267822,
				0.19810612499713898
			]
		},
		{
			"children":[
				0
			],
			"name":"RootNode"
		}
	],
	"materials":[
		{
			"name":"DefaultMaterial",
			"pbrMetallicRoughness":{
				"baseColorFactor":[
					0.5,
					0.5,
					0.5,
					1
				],
				"metallicFactor":0.20000000298023224,
				"roughnessFactor":0.800000011920929
			}
		}
	],
	"meshes":[
		{
			"name":"Plane.007",
			"primitives":[
				{
					"attributes":{
						"POSITION":0,
						"NORMAL":1,
						"TEXCOORD_0":2
					},
					"indices":3,
					"material":0
				}
			]
		}
	],
	"accessors":[
		{
			"bufferView":0,
			"componentType":5126,
			"count":3076,
			"max":[
				0.14224417507648468,
				0.11300645768642426,
				0.020134955644607544
			],
			"min":[
				-0.14224417507648468,
				-0.4006451666355133,
				-0.07800450921058655
			],
			"type":"VEC3"
		},
		{
			"bufferView":1,
			"componentType":5126,
			"count":3076,
			"type":"VEC3"
		},
		{
			"bufferView":2,
			"componentType":5126,
			"count":3076,
			"type":"VEC2"
		},
		{
			"bufferView":3,
			"componentType":5123,
			"count":4524,
			"type":"SCALAR"
		}
	],
	"bufferViews":[
		{
			"buffer":0,
			"byteLength":36912,
			"byteOffset":0,
			"target":34962
		},
		{
			"buffer":0,
			"byteLength":36912,
			"byteOffset":36912,
			"target":34962
		},
		{
			"buffer":0,
			"byteLength":24608,
			"byteOffset":73824,
			"target":34962
		},
		{
			"buffer":0,
			"byteLength":9048,
			"byteOffset":98432,
			"target":34963
		}
	],
	"buffers":[
		{
			"byteLength":107480,
			"uri":"Untitled.bin"
		}
	]
}
